<?xml version="1.0" standalone="no"?>
<!DOCTYPE svg PUBLIC "-//W3C//DTD SVG 20010904//EN"
 "http://www.w3.org/TR/2001/REC-SVG-20010904/DTD/svg10.dtd">
<svg version="1.0" xmlns="http://www.w3.org/2000/svg"
 width="512.000000pt" height="512.000000pt" viewBox="0 0 512.000000 512.000000"
 preserveAspectRatio="xMidYMid meet">
<metadata>
Created by potrace 1.14, written by Peter Selinger 2001-2017
</metadata>
<g transform="translate(0.000000,512.000000) scale(0.100000,-0.100000)"
fill="#000000" stroke="none">
<path d="M460 5114 c-78 -12 -141 -29 -190 -52 -72 -34 -177 -139 -213 -215
-58 -118 -56 -36 -54 -2317 2 -1152 6 -2111 11 -2130 14 -67 29 -105 58 -155
71 -119 177 -195 323 -232 17 -4 980 -8 2140 -9 2289 -2 2198 -4 2313 53 75
36 181 142 216 214 57 118 55 40 53 2329 -2 1990 -3 2108 -20 2165 -39 129
-130 237 -259 306 -22 12 -61 23 -123 36 -31 7 -4211 13 -4255 7z"/>
</g>
</svg>
